<?xml version="1.0" encoding="UTF-8" standalone="no"?>
<!DOCTYPE svg PUBLIC "-//W3C//DTD SVG 1.1//EN"
 "http://www.w3.org/Graphics/SVG/1.1/DTD/svg11.dtd">
<!-- Generated by graphviz version 14.1.4 (0)
 -->
<!-- Title: User_Architecture_Flow Pages: 1 -->
<svg width="1688pt" height="2115pt"
 viewBox="0.00 0.00 1688.00 2115.00" xmlns="http://www.w3.org/2000/svg" xmlns:xlink="http://www.w3.org/1999/xlink">
<g id="graph0" class="graph" transform="scale(1 1) rotate(0) translate(4 2110.73)">
<title>User_Architecture_Flow</title>
<polygon fill="white" stroke="none" points="-4,4 -4,-2110.73 1684.45,-2110.73 1684.45,4 -4,4"/>
<g id="clust1" class="cluster">
<title>cluster_frontend</title>
<polygon fill="#e3f2fd" stroke="#90caf9" points="895.45,-1164.8 895.45,-2009.75 1374.45,-2009.75 1374.45,-1164.8 895.45,-1164.8"/>
<text xml:space="preserve" text-anchor="middle" x="1134.95" y="-1992.45" font-family="Helvetica,sans-Serif" font-weight="bold" font-size="14.00">FRONTEND &amp; SSR ROUTER (Port 8001)</text>
</g>
<g id="clust2" class="cluster">
<title>cluster_backend</title>
<polygon fill="#f5f5f5" stroke="#bdbdbd" points="55.45,-923.6 55.45,-1156.55 1672.45,-1156.55 1672.45,-923.6 55.45,-923.6"/>
<text xml:space="preserve" text-anchor="middle" x="863.95" y="-1139.25" font-family="Helvetica,sans-Serif" font-weight="bold" font-size="14.00">BACKEND API (server.py / middleware.py)</text>
</g>
<g id="clust3" class="cluster">
<title>cluster_storage</title>
<polygon fill="#fff3e0" stroke="#ffcc80" points="849.45,-8 849.45,-696.35 1083.45,-696.35 1083.45,-8 849.45,-8"/>
<text xml:space="preserve" text-anchor="middle" x="966.45" y="-679.05" font-family="Helvetica,sans-Serif" font-weight="bold" font-size="14.00">STORAGE &amp; CONFIG</text>
</g>
<!-- User -->
<g id="node1" class="node">
<title>User</title>
<ellipse fill="#d1c4e9" stroke="black" cx="1130.45" cy="-2072.37" rx="77.75" ry="34.37"/>
<text xml:space="preserve" text-anchor="middle" x="1130.45" y="-2075.42" font-family="Helvetica,sans-Serif" font-size="11.00">User Request</text>
<text xml:space="preserve" text-anchor="middle" x="1130.45" y="-2061.92" font-family="Helvetica,sans-Serif" font-size="11.00">(Browser)</text>
</g>
<!-- Router -->
<g id="node2" class="node">
<title>Router</title>
<path fill="#bbdefb" stroke="black" d="M1185.05,-1966C1185.05,-1966 1075.85,-1966 1075.85,-1966 1069.85,-1966 1063.85,-1960 1063.85,-1954 1063.85,-1954 1063.85,-1929.4 1063.85,-1929.4 1063.85,-1923.4 1069.85,-1917.4 1075.85,-1917.4 1075.85,-1917.4 1185.05,-1917.4 1185.05,-1917.4 1191.05,-1917.4 1197.05,-1923.4 1197.05,-1929.4 1197.05,-1929.4 1197.05,-1954 1197.05,-1954 1197.05,-1960 1191.05,-1966 1185.05,-1966"/>
<text xml:space="preserve" text-anchor="middle" x="1130.45" y="-1944.75" font-family="Helvetica,sans-Serif" font-size="11.00">Router (router.py)</text>
<text xml:space="preserve" text-anchor="middle" x="1130.45" y="-1931.25" font-family="Helvetica,sans-Serif" font-size="11.00">Intercepts all traffic</text>
</g>
<!-- User&#45;&gt;Router -->
<g id="edge4" class="edge">
<title>User&#45;&gt;Router</title>
<path fill="none" stroke="#555555" d="M1130.45,-2037.69C1130.45,-2037.69 1130.45,-1977.7 1130.45,-1977.7"/>
<polygon fill="#555555" stroke="#555555" points="1133.95,-1977.7 1130.45,-1967.7 1126.95,-1977.7 1133.95,-1977.7"/>
</g>
<!-- Route_404 -->
<g id="node3" class="node">
<title>Route_404</title>
<path fill="#ffcdd2" stroke="black" d="M1080.17,-1845.4C1080.17,-1845.4 938.73,-1845.4 938.73,-1845.4 932.73,-1845.4 926.73,-1839.4 926.73,-1833.4 926.73,-1833.4 926.73,-1808.8 926.73,-1808.8 926.73,-1802.8 932.73,-1796.8 938.73,-1796.8 938.73,-1796.8 1080.17,-1796.8 1080.17,-1796.8 1086.17,-1796.8 1092.17,-1802.8 1092.17,-1808.8 1092.17,-1808.8 1092.17,-1833.4 1092.17,-1833.4 1092.17,-1839.4 1086.17,-1845.4 1080.17,-1845.4"/>
<text xml:space="preserve" text-anchor="middle" x="1009.45" y="-1824.15" font-family="Helvetica,sans-Serif" font-size="11.00">404 Handler</text>
<text xml:space="preserve" text-anchor="middle" x="1009.45" y="-1810.65" font-family="Helvetica,sans-Serif" font-size="11.00">Serve templates/404.html</text>
</g>
<!-- Router&#45;&gt;Route_404 -->
<g id="edge5" class="edge">
<title>Router&#45;&gt;Route_404</title>
<path fill="none" stroke="#555555" d="M1078.01,-1917C1078.01,-1917 1078.01,-1857.28 1078.01,-1857.28"/>
<polygon fill="#555555" stroke="#555555" points="1081.51,-1857.28 1078.01,-1847.28 1074.51,-1857.28 1081.51,-1857.28"/>
<text xml:space="preserve" text-anchor="middle" x="1054.01" y="-1889.09" font-family="Helvetica,sans-Serif" font-size="9.00">Invalid URL</text>
</g>
<!-- Route_CheckJWT -->
<g id="node4" class="node">
<title>Route_CheckJWT</title>
<path fill="#bbdefb" stroke="black" d="M1326.3,-1845.4C1326.3,-1845.4 1176.6,-1845.4 1176.6,-1845.4 1170.6,-1845.4 1164.6,-1839.4 1164.6,-1833.4 1164.6,-1833.4 1164.6,-1808.8 1164.6,-1808.8 1164.6,-1802.8 1170.6,-1796.8 1176.6,-1796.8 1176.6,-1796.8 1326.3,-1796.8 1326.3,-1796.8 1332.3,-1796.8 1338.3,-1802.8 1338.3,-1808.8 1338.3,-1808.8 1338.3,-1833.4 1338.3,-1833.4 1338.3,-1839.4 1332.3,-1845.4 1326.3,-1845.4"/>
<text xml:space="preserve" text-anchor="middle" x="1251.45" y="-1824.15" font-family="Helvetica,sans-Serif" font-size="11.00">Verify JWT Session Cookie</text>
<text xml:space="preserve" text-anchor="middle" x="1251.45" y="-1810.65" font-family="Helvetica,sans-Serif" font-size="11.00">Get Role (Admin/User)</text>
</g>
<!-- Router&#45;&gt;Route_CheckJWT -->
<g id="edge6" class="edge">
<title>Router&#45;&gt;Route_CheckJWT</title>
<path fill="none" stroke="#555555" d="M1180.83,-1917C1180.83,-1917 1180.83,-1857.28 1180.83,-1857.28"/>
<polygon fill="#555555" stroke="#555555" points="1184.33,-1857.28 1180.83,-1847.28 1177.33,-1857.28 1184.33,-1857.28"/>
<text xml:space="preserve" text-anchor="middle" x="1151.2" y="-1889.09" font-family="Helvetica,sans-Serif" font-size="9.00">Valid Endpoint</text>
</g>
<!-- Login_UI -->
<g id="node5" class="node">
<title>Login_UI</title>
<path fill="#90caf9" stroke="black" d="M1342.05,-1605.1C1342.05,-1605.1 1184.85,-1605.1 1184.85,-1605.1 1178.85,-1605.1 1172.85,-1599.1 1172.85,-1593.1 1172.85,-1593.1 1172.85,-1568.5 1172.85,-1568.5 1172.85,-1562.5 1178.85,-1556.5 1184.85,-1556.5 1184.85,-1556.5 1342.05,-1556.5 1342.05,-1556.5 1348.05,-1556.5 1354.05,-1562.5 1354.05,-1568.5 1354.05,-1568.5 1354.05,-1593.1 1354.05,-1593.1 1354.05,-1599.1 1348.05,-1605.1 1342.05,-1605.1"/>
<text xml:space="preserve" text-anchor="middle" x="1263.45" y="-1583.85" font-family="Helvetica,sans-Serif" font-size="11.00">Login Page (login.html)</text>
<text xml:space="preserve" text-anchor="middle" x="1263.45" y="-1570.35" font-family="Helvetica,sans-Serif" font-size="11.00">Submit Username/Password</text>
</g>
<!-- Route_CheckJWT&#45;&gt;Login_UI -->
<g id="edge7" class="edge">
<title>Route_CheckJWT&#45;&gt;Login_UI</title>
<path fill="none" stroke="#555555" d="M1255.58,-1796.74C1255.58,-1796.74 1255.58,-1617.1 1255.58,-1617.1"/>
<polygon fill="#555555" stroke="#555555" points="1259.08,-1617.1 1255.58,-1607.1 1252.08,-1617.1 1259.08,-1617.1"/>
<text xml:space="preserve" text-anchor="middle" x="1211.7" y="-1708.87" font-family="Helvetica,sans-Serif" font-size="9.00">Missing/Invalid Token</text>
</g>
<!-- User_UI -->
<g id="node6" class="node">
<title>User_UI</title>
<path fill="#90caf9" stroke="black" d="M1089.3,-1724.8C1089.3,-1724.8 927.6,-1724.8 927.6,-1724.8 921.6,-1724.8 915.6,-1718.8 915.6,-1712.8 915.6,-1712.8 915.6,-1448.8 915.6,-1448.8 915.6,-1442.8 921.6,-1436.8 927.6,-1436.8 927.6,-1436.8 1089.3,-1436.8 1089.3,-1436.8 1095.3,-1436.8 1101.3,-1442.8 1101.3,-1448.8 1101.3,-1448.8 1101.3,-1712.8 1101.3,-1712.8 1101.3,-1718.8 1095.3,-1724.8 1089.3,-1724.8"/>
<text xml:space="preserve" text-anchor="middle" x="1008.45" y="-1583.85" font-family="Helvetica,sans-Serif" font-size="11.00">User Dashboard (admin.html)</text>
<text xml:space="preserve" text-anchor="middle" x="1008.45" y="-1570.35" font-family="Helvetica,sans-Serif" font-size="11.00">Alpine.js + AG Grid Init</text>
</g>
<!-- Route_CheckJWT&#45;&gt;User_UI -->
<g id="edge8" class="edge">
<title>Route_CheckJWT&#45;&gt;User_UI</title>
<path fill="none" stroke="#555555" d="M1164.15,-1821C1129.05,-1821 1096.74,-1821 1096.74,-1821 1096.74,-1821 1096.74,-1736.54 1096.74,-1736.54"/>
<polygon fill="#555555" stroke="#555555" points="1100.24,-1736.54 1096.74,-1726.54 1093.24,-1736.54 1100.24,-1736.54"/>
<text xml:space="preserve" text-anchor="middle" x="1131.24" y="-1803.93" font-family="Helvetica,sans-Serif" font-size="9.00">Valid User Token</text>
</g>
<!-- API_Login -->
<g id="node8" class="node">
<title>API_Login</title>
<path fill="#e0e0e0" stroke="black" d="M517.18,-1112.8C517.18,-1112.8 387.73,-1112.8 387.73,-1112.8 381.73,-1112.8 375.73,-1106.8 375.73,-1100.8 375.73,-1100.8 375.73,-1076.2 375.73,-1076.2 375.73,-1070.2 381.73,-1064.2 387.73,-1064.2 387.73,-1064.2 517.18,-1064.2 517.18,-1064.2 523.18,-1064.2 529.18,-1070.2 529.18,-1076.2 529.18,-1076.2 529.18,-1100.8 529.18,-1100.8 529.18,-1106.8 523.18,-1112.8 517.18,-1112.8"/>
<text xml:space="preserve" text-anchor="middle" x="452.45" y="-1091.55" font-family="Helvetica,sans-Serif" font-size="11.00">/api/login</text>
<text xml:space="preserve" text-anchor="middle" x="452.45" y="-1078.05" font-family="Helvetica,sans-Serif" font-size="11.00">Verify bcrypt Password</text>
</g>
<!-- Login_UI&#45;&gt;API_Login -->
<g id="edge9" class="edge">
<title>Login_UI&#45;&gt;API_Login</title>
<path fill="none" stroke="#555555" d="M1191.79,-1556.04C1191.79,-1509.36 1191.79,-1413 1191.79,-1413 1191.79,-1413 426.88,-1413 426.88,-1413 426.88,-1413 426.88,-1124.67 426.88,-1124.67"/>
<polygon fill="#555555" stroke="#555555" points="430.38,-1124.67 426.88,-1114.67 423.38,-1124.67 430.38,-1124.67"/>
<text xml:space="preserve" text-anchor="middle" x="699.94" y="-1414.95" font-family="Helvetica,sans-Serif" font-size="9.00">POST Credentials</text>
</g>
<!-- UI_Filters -->
<g id="node7" class="node">
<title>UI_Filters</title>
<path fill="#c8e6c9" stroke="black" d="M1217.67,-1364.8C1217.67,-1364.8 1055.23,-1364.8 1055.23,-1364.8 1049.23,-1364.8 1043.23,-1358.8 1043.23,-1352.8 1043.23,-1352.8 1043.23,-1196.8 1043.23,-1196.8 1043.23,-1190.8 1049.23,-1184.8 1055.23,-1184.8 1055.23,-1184.8 1217.67,-1184.8 1217.67,-1184.8 1223.67,-1184.8 1229.67,-1190.8 1229.67,-1196.8 1229.67,-1196.8 1229.67,-1352.8 1229.67,-1352.8 1229.67,-1358.8 1223.67,-1364.8 1217.67,-1364.8"/>
<text xml:space="preserve" text-anchor="middle" x="1136.45" y="-1277.85" font-family="Helvetica,sans-Serif" font-size="11.00">Update Sidebar Filters &amp; Year</text>
<text xml:space="preserve" text-anchor="middle" x="1136.45" y="-1264.35" font-family="Helvetica,sans-Serif" font-size="11.00">(Triggers Refresh Loop)</text>
</g>
<!-- User_UI&#45;&gt;UI_Filters -->
<g id="edge15" class="edge">
<title>User_UI&#45;&gt;UI_Filters</title>
<path fill="none" stroke="#555555" d="M1072.26,-1436.31C1072.26,-1436.31 1072.26,-1376.54 1072.26,-1376.54"/>
<polygon fill="#555555" stroke="#555555" points="1075.76,-1376.54 1072.26,-1366.54 1068.76,-1376.54 1075.76,-1376.54"/>
<text xml:space="preserve" text-anchor="middle" x="1019.39" y="-1408.38" font-family="Helvetica,sans-Serif" font-size="9.00">Change View / Filter / Sort</text>
</g>
<!-- API_History -->
<g id="node13" class="node">
<title>API_History</title>
<path fill="#e0e0e0" stroke="black" d="M775.68,-1112.8C775.68,-1112.8 613.23,-1112.8 613.23,-1112.8 607.23,-1112.8 601.23,-1106.8 601.23,-1100.8 601.23,-1100.8 601.23,-1076.2 601.23,-1076.2 601.23,-1070.2 607.23,-1064.2 613.23,-1064.2 613.23,-1064.2 775.68,-1064.2 775.68,-1064.2 781.68,-1064.2 787.68,-1070.2 787.68,-1076.2 787.68,-1076.2 787.68,-1100.8 787.68,-1100.8 787.68,-1106.8 781.68,-1112.8 775.68,-1112.8"/>
<text xml:space="preserve" text-anchor="middle" x="694.45" y="-1091.55" font-family="Helvetica,sans-Serif" font-size="11.00">/history/details</text>
<text xml:space="preserve" text-anchor="middle" x="694.45" y="-1078.05" font-family="Helvetica,sans-Serif" font-size="11.00">Compare valid_from / valid_to</text>
</g>
<!-- User_UI&#45;&gt;API_History -->
<g id="edge32" class="edge">
<title>User_UI&#45;&gt;API_History</title>
<path fill="none" stroke="#555555" d="M915.52,-1552C813.32,-1552 663.38,-1552 663.38,-1552 663.38,-1552 663.38,-1124.61 663.38,-1124.61"/>
<polygon fill="#555555" stroke="#555555" points="666.88,-1124.61 663.38,-1114.61 659.88,-1124.61 666.88,-1124.61"/>
<text xml:space="preserve" text-anchor="middle" x="615" y="-1466.33" font-family="Helvetica,sans-Serif" font-size="9.00">Expand History Sidebar</text>
</g>
<!-- API_Download -->
<g id="node14" class="node">
<title>API_Download</title>
<path fill="#e0e0e0" stroke="black" d="M1060.8,-1112.8C1060.8,-1112.8 872.1,-1112.8 872.1,-1112.8 866.1,-1112.8 860.1,-1106.8 860.1,-1100.8 860.1,-1100.8 860.1,-1076.2 860.1,-1076.2 860.1,-1070.2 866.1,-1064.2 872.1,-1064.2 872.1,-1064.2 1060.8,-1064.2 1060.8,-1064.2 1066.8,-1064.2 1072.8,-1070.2 1072.8,-1076.2 1072.8,-1076.2 1072.8,-1100.8 1072.8,-1100.8 1072.8,-1106.8 1066.8,-1112.8 1060.8,-1112.8"/>
<text xml:space="preserve" text-anchor="middle" x="966.45" y="-1091.55" font-family="Helvetica,sans-Serif" font-size="11.00">/download/excel</text>
<text xml:space="preserve" text-anchor="middle" x="966.45" y="-1078.05" font-family="Helvetica,sans-Serif" font-size="11.00">Dynamic Workbook or Precompiled</text>
</g>
<!-- User_UI&#45;&gt;API_Download -->
<g id="edge36" class="edge">
<title>User_UI&#45;&gt;API_Download</title>
<path fill="none" stroke="#555555" d="M958.14,-1436.42C958.14,-1436.42 958.14,-1124.62 958.14,-1124.62"/>
<polygon fill="#555555" stroke="#555555" points="961.64,-1124.62 958.14,-1114.62 954.64,-1124.62 961.64,-1124.62"/>
<text xml:space="preserve" text-anchor="middle" x="928.52" y="-1282.47" font-family="Helvetica,sans-Serif" font-size="9.00">Request Excel</text>
</g>
<!-- API_Query -->
<g id="node10" class="node">
<title>API_Query</title>
<path fill="#e0e0e0" stroke="black" d="M1347.92,-1112.8C1347.92,-1112.8 1156.98,-1112.8 1156.98,-1112.8 1150.98,-1112.8 1144.98,-1106.8 1144.98,-1100.8 1144.98,-1100.8 1144.98,-1076.2 1144.98,-1076.2 1144.98,-1070.2 1150.98,-1064.2 1156.98,-1064.2 1156.98,-1064.2 1347.92,-1064.2 1347.92,-1064.2 1353.92,-1064.2 1359.92,-1070.2 1359.92,-1076.2 1359.92,-1076.2 1359.92,-1100.8 1359.92,-1100.8 1359.92,-1106.8 1353.92,-1112.8 1347.92,-1112.8"/>
<text xml:space="preserve" text-anchor="middle" x="1252.45" y="-1091.55" font-family="Helvetica,sans-Serif" font-size="11.00">/query</text>
<text xml:space="preserve" text-anchor="middle" x="1252.45" y="-1078.05" font-family="Helvetica,sans-Serif" font-size="11.00">DuckDB &#45;&gt; Polars &#45;&gt; JSON Stream</text>
</g>
<!-- UI_Filters&#45;&gt;API_Query -->
<g id="edge16" class="edge">
<title>UI_Filters&#45;&gt;API_Query</title>
<path fill="none" stroke="#555555" d="M1187.33,-1184.38C1187.33,-1184.38 1187.33,-1124.46 1187.33,-1124.46"/>
<polygon fill="#555555" stroke="#555555" points="1190.83,-1124.46 1187.33,-1114.46 1183.83,-1124.46 1190.83,-1124.46"/>
<text xml:space="preserve" text-anchor="middle" x="1153.95" y="-1156.37" font-family="Helvetica,sans-Serif" font-size="9.00">Grid View Active</text>
</g>
<!-- API_Rekomendasi -->
<g id="node11" class="node">
<title>API_Rekomendasi</title>
<path fill="#e0e0e0" stroke="black" d="M291.68,-1112.8C291.68,-1112.8 87.23,-1112.8 87.23,-1112.8 81.23,-1112.8 75.23,-1106.8 75.23,-1100.8 75.23,-1100.8 75.23,-1076.2 75.23,-1076.2 75.23,-1070.2 81.23,-1064.2 87.23,-1064.2 87.23,-1064.2 291.68,-1064.2 291.68,-1064.2 297.68,-1064.2 303.68,-1070.2 303.68,-1076.2 303.68,-1076.2 303.68,-1100.8 303.68,-1100.8 303.68,-1106.8 297.68,-1112.8 291.68,-1112.8"/>
<text xml:space="preserve" text-anchor="middle" x="189.45" y="-1091.55" font-family="Helvetica,sans-Serif" font-size="11.00">/dashboard/calculate</text>
<text xml:space="preserve" text-anchor="middle" x="189.45" y="-1078.05" font-family="Helvetica,sans-Serif" font-size="11.00">Aggregate Scores &amp; Narrative (HTML)</text>
</g>
<!-- UI_Filters&#45;&gt;API_Rekomendasi -->
<g id="edge17" class="edge">
<title>UI_Filters&#45;&gt;API_Rekomendasi</title>
<path fill="none" stroke="#555555" d="M1043.03,-1275C811.08,-1275 227.53,-1275 227.53,-1275 227.53,-1275 227.53,-1124.78 227.53,-1124.78"/>
<polygon fill="#555555" stroke="#555555" points="231.03,-1124.78 227.53,-1114.78 224.03,-1124.78 231.03,-1124.78"/>
<text xml:space="preserve" text-anchor="middle" x="518.17" y="-1276.95" font-family="Helvetica,sans-Serif" font-size="9.00">Rekomendasi Active</text>
</g>
<!-- API_IKU -->
<g id="node12" class="node">
<title>API_IKU</title>
<path fill="#e0e0e0" stroke="black" d="M1640.92,-1112.8C1640.92,-1112.8 1443.98,-1112.8 1443.98,-1112.8 1437.98,-1112.8 1431.98,-1106.8 1431.98,-1100.8 1431.98,-1100.8 1431.98,-1076.2 1431.98,-1076.2 1431.98,-1070.2 1437.98,-1064.2 1443.98,-1064.2 1443.98,-1064.2 1640.92,-1064.2 1640.92,-1064.2 1646.92,-1064.2 1652.92,-1070.2 1652.92,-1076.2 1652.92,-1076.2 1652.92,-1100.8 1652.92,-1100.8 1652.92,-1106.8 1646.92,-1112.8 1640.92,-1112.8"/>
<text xml:space="preserve" text-anchor="middle" x="1542.45" y="-1091.55" font-family="Helvetica,sans-Serif" font-size="11.00">/dashboard/iku</text>
<text xml:space="preserve" text-anchor="middle" x="1542.45" y="-1078.05" font-family="Helvetica,sans-Serif" font-size="11.00">Group Hierarchy &amp; Heatmap (HTML)</text>
</g>
<!-- UI_Filters&#45;&gt;API_IKU -->
<g id="edge18" class="edge">
<title>UI_Filters&#45;&gt;API_IKU</title>
<path fill="none" stroke="#555555" d="M1230.09,-1275C1339.46,-1275 1505.62,-1275 1505.62,-1275 1505.62,-1275 1505.62,-1124.78 1505.62,-1124.78"/>
<polygon fill="#555555" stroke="#555555" points="1509.13,-1124.78 1505.63,-1114.78 1502.13,-1124.78 1509.13,-1124.78"/>
<text xml:space="preserve" text-anchor="middle" x="1421.97" y="-1276.95" font-family="Helvetica,sans-Serif" font-size="9.00">IKU Active</text>
</g>
<!-- API_Login&#45;&gt;Login_UI -->
<g id="edge12" class="edge">
<title>API_Login&#45;&gt;Login_UI</title>
<path fill="none" stroke="red" d="M478.03,-1113.09C478.03,-1184.86 478.03,-1389 478.03,-1389 478.03,-1389 1210.73,-1389 1210.73,-1389 1210.73,-1389 1210.73,-1544.6 1210.73,-1544.6"/>
<polygon fill="red" stroke="red" points="1207.23,-1544.6 1210.73,-1554.6 1214.23,-1544.6 1207.23,-1544.6"/>
<text xml:space="preserve" text-anchor="middle" x="730.23" y="-1380.45" font-family="Helvetica,sans-Serif" font-size="9.00" fill="red">[LOOP] Invalid Credentials</text>
</g>
<!-- Logic_JWT -->
<g id="node9" class="node">
<title>Logic_JWT</title>
<path fill="#a5d6a7" stroke="black" d="M391.05,-992.2C391.05,-992.2 269.85,-992.2 269.85,-992.2 263.85,-992.2 257.85,-986.2 257.85,-980.2 257.85,-980.2 257.85,-955.6 257.85,-955.6 257.85,-949.6 263.85,-943.6 269.85,-943.6 269.85,-943.6 391.05,-943.6 391.05,-943.6 397.05,-943.6 403.05,-949.6 403.05,-955.6 403.05,-955.6 403.05,-980.2 403.05,-980.2 403.05,-986.2 397.05,-992.2 391.05,-992.2"/>
<text xml:space="preserve" text-anchor="middle" x="330.45" y="-970.95" font-family="Helvetica,sans-Serif" font-size="11.00">Generate JWT Token</text>
<text xml:space="preserve" text-anchor="middle" x="330.45" y="-957.45" font-family="Helvetica,sans-Serif" font-size="11.00">Set HttpOnly Cookie</text>
</g>
<!-- API_Login&#45;&gt;Logic_JWT -->
<g id="edge13" class="edge">
<title>API_Login&#45;&gt;Logic_JWT</title>
<path fill="none" stroke="#555555" d="M389.39,-1063.8C389.39,-1063.8 389.39,-1004.08 389.39,-1004.08"/>
<polygon fill="#555555" stroke="#555555" points="392.89,-1004.08 389.39,-994.08 385.89,-1004.08 392.89,-1004.08"/>
<text xml:space="preserve" text-anchor="middle" x="357.89" y="-1035.89" font-family="Helvetica,sans-Serif" font-size="9.00">Valid Password</text>
</g>
<!-- Cfg_Users -->
<g id="node16" class="node">
<title>Cfg_Users</title>
<polygon fill="#ffe0b2" stroke="black" points="1025.92,-400.6 1022.92,-404.6 1001.92,-404.6 998.92,-400.6 906.98,-400.6 906.98,-364.6 1025.92,-364.6 1025.92,-400.6"/>
<text xml:space="preserve" text-anchor="middle" x="966.45" y="-378.9" font-family="Helvetica,sans-Serif" font-size="11.00">auth_users.json</text>
</g>
<!-- API_Login&#45;&gt;Cfg_Users -->
<g id="edge10" class="edge">
<title>API_Login&#45;&gt;Cfg_Users</title>
<path fill="none" stroke="#555555" d="M487.13,-1064.01C487.13,-940.21 487.13,-389 487.13,-389 487.13,-389 895.2,-389 895.2,-389"/>
<polygon fill="#555555" stroke="#555555" points="895.2,-392.5 905.2,-389 895.2,-385.5 895.2,-392.5"/>
<text xml:space="preserve" text-anchor="middle" x="459.76" y="-524.42" font-family="Helvetica,sans-Serif" font-size="9.00">Lookup Hash</text>
</g>
<!-- Logic_JWT&#45;&gt;User_UI -->
<g id="edge14" class="edge">
<title>Logic_JWT&#45;&gt;User_UI</title>
<path fill="none" stroke="#555555" d="M339.7,-992.68C339.7,-1110.68 339.7,-1610 339.7,-1610 339.7,-1610 903.6,-1610 903.6,-1610"/>
<polygon fill="#555555" stroke="#555555" points="903.6,-1613.5 913.6,-1610 903.6,-1606.5 903.6,-1613.5"/>
<text xml:space="preserve" text-anchor="middle" x="293.58" y="-1585.24" font-family="Helvetica,sans-Serif" font-size="9.00">Redirect to Dashboard</text>
</g>
<!-- API_Query&#45;&gt;User_UI -->
<g id="edge29" class="edge">
<title>API_Query&#45;&gt;User_UI</title>
<path fill="none" stroke="blue" d="M1291.86,-1113.1C1291.86,-1198.5 1291.86,-1477 1291.86,-1477 1291.86,-1477 1113.16,-1477 1113.16,-1477"/>
<polygon fill="blue" stroke="blue" points="1113.16,-1473.5 1103.16,-1477 1113.16,-1480.5 1113.16,-1473.5"/>
<text xml:space="preserve" text-anchor="middle" x="1225.49" y="-1386.35" font-family="Helvetica,sans-Serif" font-size="9.00">[LOOP] Render JSON to AG Grid</text>
</g>
<!-- DB_DuckDB -->
<g id="node15" class="node">
<title>DB_DuckDB</title>
<path fill="#ffe0b2" stroke="black" d="M1049.17,-636.24C1049.17,-645.27 1012.1,-652.6 966.45,-652.6 920.8,-652.6 883.73,-645.27 883.73,-636.24 883.73,-636.24 883.73,-488.96 883.73,-488.96 883.73,-479.93 920.8,-472.6 966.45,-472.6 1012.1,-472.6 1049.17,-479.93 1049.17,-488.96 1049.17,-488.96 1049.17,-636.24 1049.17,-636.24"/>
<path fill="none" stroke="black" d="M1049.17,-636.24C1049.17,-627.21 1012.1,-619.87 966.45,-619.87 920.8,-619.87 883.73,-627.21 883.73,-636.24"/>
<text xml:space="preserve" text-anchor="middle" x="966.45" y="-565.65" font-family="Helvetica,sans-Serif" font-size="11.00">DuckDB (dbs/)</text>
<text xml:space="preserve" text-anchor="middle" x="966.45" y="-552.15" font-family="Helvetica,sans-Serif" font-size="11.00">SCD Type 2 master_data</text>
</g>
<!-- API_Query&#45;&gt;DB_DuckDB -->
<g id="edge19" class="edge">
<title>API_Query&#45;&gt;DB_DuckDB</title>
<path fill="none" stroke="#555555" d="M1216.62,-1063.81C1216.62,-966.8 1216.62,-617 1216.62,-617 1216.62,-617 1060.92,-617 1060.92,-617"/>
<polygon fill="#555555" stroke="#555555" points="1060.92,-613.5 1050.92,-617 1060.92,-620.5 1060.92,-613.5"/>
<text xml:space="preserve" text-anchor="middle" x="1186.62" y="-764.5" font-family="Helvetica,sans-Serif" font-size="9.00">Execute Query</text>
</g>
<!-- API_Rekomendasi&#45;&gt;User_UI -->
<g id="edge30" class="edge">
<title>API_Rekomendasi&#45;&gt;User_UI</title>
<path fill="none" stroke="blue" d="M151.38,-1112.99C151.38,-1223.1 151.38,-1667 151.38,-1667 151.38,-1667 903.99,-1667 903.99,-1667"/>
<polygon fill="blue" stroke="blue" points="903.99,-1670.5 913.99,-1667 903.99,-1663.5 903.99,-1670.5"/>
<text xml:space="preserve" text-anchor="middle" x="194.05" y="-1668.95" font-family="Helvetica,sans-Serif" font-size="9.00">[LOOP] Render HTML Table</text>
</g>
<!-- API_Rekomendasi&#45;&gt;DB_DuckDB -->
<g id="edge21" class="edge">
<title>API_Rekomendasi&#45;&gt;DB_DuckDB</title>
<path fill="none" stroke="#555555" d="M221.33,-1063.91C221.33,-956.41 221.33,-533 221.33,-533 221.33,-533 871.99,-533 871.99,-533"/>
<polygon fill="#555555" stroke="#555555" points="871.99,-536.5 881.99,-533 871.99,-529.5 871.99,-536.5"/>
<text xml:space="preserve" text-anchor="middle" x="253.45" y="-534.95" font-family="Helvetica,sans-Serif" font-size="9.00">Execute Filter</text>
</g>
<!-- Cfg_Logic -->
<g id="node17" class="node">
<title>Cfg_Logic</title>
<polygon fill="#ffe0b2" stroke="black" points="1063.8,-292.6 1060.8,-296.6 1039.8,-296.6 1036.8,-292.6 869.1,-292.6 869.1,-148.6 1063.8,-148.6 1063.8,-292.6"/>
<text xml:space="preserve" text-anchor="middle" x="966.45" y="-223.65" font-family="Helvetica,sans-Serif" font-size="11.00">headers.json, rekomendasi.json</text>
<text xml:space="preserve" text-anchor="middle" x="966.45" y="-210.15" font-family="Helvetica,sans-Serif" font-size="11.00">Table Structures etc.</text>
</g>
<!-- API_Rekomendasi&#45;&gt;Cfg_Logic -->
<g id="edge25" class="edge">
<title>API_Rekomendasi&#45;&gt;Cfg_Logic</title>
<path fill="none" stroke="#555555" d="M148.28,-1063.71C148.28,-924.39 148.28,-245 148.28,-245 148.28,-245 857.46,-245 857.46,-245"/>
<polygon fill="#555555" stroke="#555555" points="857.46,-248.5 867.46,-245 857.46,-241.5 857.46,-248.5"/>
<text xml:space="preserve" text-anchor="middle" x="98.4" y="-301.71" font-family="Helvetica,sans-Serif" font-size="9.00">Read Formats/Intervensi</text>
</g>
<!-- API_IKU&#45;&gt;User_UI -->
<g id="edge31" class="edge">
<title>API_IKU&#45;&gt;User_UI</title>
<path fill="none" stroke="blue" d="M1579.28,-1113.08C1579.28,-1204.13 1579.28,-1517 1579.28,-1517 1579.28,-1517 1113.27,-1517 1113.27,-1517"/>
<polygon fill="blue" stroke="blue" points="1113.27,-1513.5 1103.27,-1517 1113.27,-1520.5 1113.27,-1513.5"/>
<text xml:space="preserve" text-anchor="middle" x="1484.11" y="-1518.95" font-family="Helvetica,sans-Serif" font-size="9.00">[LOOP] Render HTML Heatmap</text>
</g>
<!-- API_IKU&#45;&gt;DB_DuckDB -->
<g id="edge23" class="edge">
<title>API_IKU&#45;&gt;DB_DuckDB</title>
<path fill="none" stroke="#555555" d="M1476.17,-1063.73C1476.17,-957.41 1476.17,-545 1476.17,-545 1476.17,-545 1060.99,-545 1060.99,-545"/>
<polygon fill="#555555" stroke="#555555" points="1060.99,-541.5 1050.99,-545 1060.99,-548.5 1060.99,-541.5"/>
<text xml:space="preserve" text-anchor="middle" x="1448.42" y="-598.73" font-family="Helvetica,sans-Serif" font-size="9.00">Execute Filter</text>
</g>
<!-- API_IKU&#45;&gt;Cfg_Logic -->
<g id="edge27" class="edge">
<title>API_IKU&#45;&gt;Cfg_Logic</title>
<path fill="none" stroke="#555555" d="M1564.55,-1063.71C1564.55,-924.39 1564.55,-245 1564.55,-245 1564.55,-245 1075.72,-245 1075.72,-245"/>
<polygon fill="#555555" stroke="#555555" points="1075.72,-241.5 1065.72,-245 1075.72,-248.5 1075.72,-241.5"/>
<text xml:space="preserve" text-anchor="middle" x="1523.67" y="-411.9" font-family="Helvetica,sans-Serif" font-size="9.00">Read IKU Hierarchy</text>
</g>
<!-- API_History&#45;&gt;User_UI -->
<g id="edge35" class="edge">
<title>API_History&#45;&gt;User_UI</title>
<path fill="none" stroke="blue" d="M725.53,-1113.26C725.53,-1201.3 725.53,-1494 725.53,-1494 725.53,-1494 903.9,-1494 903.9,-1494"/>
<polygon fill="blue" stroke="blue" points="903.9,-1497.5 913.9,-1494 903.9,-1490.5 903.9,-1497.5"/>
<text xml:space="preserve" text-anchor="middle" x="674.9" y="-1394.77" font-family="Helvetica,sans-Serif" font-size="9.00">[LOOP] Show Diff Details</text>
</g>
<!-- API_History&#45;&gt;DB_DuckDB -->
<g id="edge33" class="edge">
<title>API_History&#45;&gt;DB_DuckDB</title>
<path fill="none" stroke="#555555" d="M741.06,-1063.8C741.06,-967.57 741.06,-623 741.06,-623 741.06,-623 871.97,-623 871.97,-623"/>
<polygon fill="#555555" stroke="#555555" points="871.97,-626.5 881.97,-623 871.97,-619.5 871.97,-626.5"/>
<text xml:space="preserve" text-anchor="middle" x="691.19" y="-779.9" font-family="Helvetica,sans-Serif" font-size="9.00">Query Target Timestamp</text>
</g>
<!-- API_History&#45;&gt;DB_DuckDB -->
<!-- API_Download&#45;&gt;User_UI -->
<g id="edge41" class="edge">
<title>API_Download&#45;&gt;User_UI</title>
<path fill="none" stroke="blue" d="M1000.68,-1113.25C1000.68,-1113.25 1000.68,-1424.99 1000.68,-1424.99"/>
<polygon fill="blue" stroke="blue" points="997.18,-1424.99 1000.68,-1434.99 1004.18,-1424.99 997.18,-1424.99"/>
<text xml:space="preserve" text-anchor="middle" x="939.56" y="-1271.07" font-family="Helvetica,sans-Serif" font-size="9.00">[LOOP] Trigger File Download</text>
</g>
<!-- API_Download&#45;&gt;DB_DuckDB -->
<g id="edge39" class="edge">
<title>API_Download&#45;&gt;DB_DuckDB</title>
<path fill="none" stroke="#555555" d="M925.09,-1063.84C925.09,-1063.84 925.09,-664.44 925.09,-664.44"/>
<polygon fill="#555555" stroke="#555555" points="928.59,-664.44 925.09,-654.44 921.59,-664.44 928.59,-664.44"/>
<text xml:space="preserve" text-anchor="middle" x="850.46" y="-866.09" font-family="Helvetica,sans-Serif" font-size="9.00">Filters Active &#45;&gt; Query Dynamic Data</text>
</g>
<!-- API_Download&#45;&gt;DB_DuckDB -->
<!-- Export_Dir -->
<g id="node18" class="node">
<title>Export_Dir</title>
<polygon fill="#ffe0b2" stroke="black" points="1051.8,-76.6 1048.8,-80.6 1027.8,-80.6 1024.8,-76.6 881.1,-76.6 881.1,-28 1051.8,-28 1051.8,-76.6"/>
<text xml:space="preserve" text-anchor="middle" x="966.45" y="-55.35" font-family="Helvetica,sans-Serif" font-size="11.00">exports/ directory</text>
<text xml:space="preserve" text-anchor="middle" x="966.45" y="-41.85" font-family="Helvetica,sans-Serif" font-size="11.00">Precompiled Master XLSX</text>
</g>
<!-- API_Download&#45;&gt;Export_Dir -->
<g id="edge37" class="edge">
<title>API_Download&#45;&gt;Export_Dir</title>
<path fill="none" stroke="#555555" d="M866.1,-1063.84C866.1,-907.43 866.1,-60 866.1,-60 866.1,-60 869.39,-60 869.39,-60"/>
<polygon fill="#555555" stroke="#555555" points="869.39,-63.5 879.39,-60 869.39,-56.5 869.39,-63.5"/>
<text xml:space="preserve" text-anchor="middle" x="782.1" y="-562.22" font-family="Helvetica,sans-Serif" font-size="9.00">No Filters &#45;&gt; Check Static (Pre&#45;Compiled)</text>
</g>
<!-- DB_DuckDB&#45;&gt;API_Query -->
<g id="edge20" class="edge">
<title>DB_DuckDB&#45;&gt;API_Query</title>
<path fill="none" stroke="#0f766e" d="M1049.33,-581C1144.68,-581 1288.28,-581 1288.28,-581 1288.28,-581 1288.28,-1052.51 1288.28,-1052.51"/>
<polygon fill="#0f766e" stroke="#0f766e" points="1284.78,-1052.51 1288.28,-1062.51 1291.78,-1052.51 1284.78,-1052.51"/>
<text xml:space="preserve" text-anchor="middle" x="1245.53" y="-699.23" font-family="Helvetica,sans-Serif" font-size="9.00" fill="#0f766e">[RETURN] Raw Data</text>
</g>
<!-- DB_DuckDB&#45;&gt;API_Rekomendasi -->
<g id="edge22" class="edge">
<title>DB_DuckDB&#45;&gt;API_Rekomendasi</title>
<path fill="none" stroke="#0f766e" d="M883.54,-503C682.37,-503 184.8,-503 184.8,-503 184.8,-503 184.8,-1052.2 184.8,-1052.2"/>
<polygon fill="#0f766e" stroke="#0f766e" points="181.3,-1052.2 184.8,-1062.2 188.3,-1052.2 181.3,-1052.2"/>
<text xml:space="preserve" text-anchor="middle" x="210.82" y="-504.95" font-family="Helvetica,sans-Serif" font-size="9.00" fill="#0f766e">[RETURN] Filtered Data</text>
</g>
<!-- DB_DuckDB&#45;&gt;API_IKU -->
<g id="edge24" class="edge">
<title>DB_DuckDB&#45;&gt;API_IKU</title>
<path fill="none" stroke="#0f766e" d="M1049.67,-509C1204.3,-509 1520.36,-509 1520.36,-509 1520.36,-509 1520.36,-1052.46 1520.36,-1052.46"/>
<polygon fill="#0f766e" stroke="#0f766e" points="1516.86,-1052.46 1520.36,-1062.46 1523.86,-1052.46 1516.86,-1052.46"/>
<text xml:space="preserve" text-anchor="middle" x="1471.6" y="-547.34" font-family="Helvetica,sans-Serif" font-size="9.00" fill="#0f766e">[RETURN] Filtered Data</text>
</g>
<!-- DB_DuckDB&#45;&gt;API_History -->
<g id="edge34" class="edge">
<title>DB_DuckDB&#45;&gt;API_History</title>
<path fill="none" stroke="#0f766e" d="M883.57,-563C789.17,-563 647.84,-563 647.84,-563 647.84,-563 647.84,-1052.35 647.84,-1052.35"/>
<polygon fill="#0f766e" stroke="#0f766e" points="644.34,-1052.35 647.84,-1062.35 651.34,-1052.35 644.34,-1052.35"/>
<text xml:space="preserve" text-anchor="middle" x="595.34" y="-691.76" font-family="Helvetica,sans-Serif" font-size="9.00" fill="#0f766e">[RETURN] Historical Data</text>
</g>
<!-- DB_DuckDB&#45;&gt;API_Download -->
<g id="edge40" class="edge">
<title>DB_DuckDB&#45;&gt;API_Download</title>
<path fill="none" stroke="#0f766e" d="M1007.81,-653.01C1007.81,-653.01 1007.81,-1052.32 1007.81,-1052.32"/>
<polygon fill="#0f766e" stroke="#0f766e" points="1004.31,-1052.32 1007.81,-1062.32 1011.31,-1052.32 1004.31,-1052.32"/>
<text xml:space="preserve" text-anchor="middle" x="956.44" y="-854.61" font-family="Helvetica,sans-Serif" font-size="9.00" fill="#0f766e">[RETURN] Dynamic Data</text>
</g>
<!-- DB_DuckDB&#45;&gt;Cfg_Users -->
<!-- Cfg_Users&#45;&gt;API_Login -->
<g id="edge11" class="edge">
<title>Cfg_Users&#45;&gt;API_Login</title>
<path fill="none" stroke="#0f766e" d="M906.64,-377C769.7,-377 445.09,-377 445.09,-377 445.09,-377 445.09,-1052.5 445.09,-1052.5"/>
<polygon fill="#0f766e" stroke="#0f766e" points="441.59,-1052.5 445.09,-1062.5 448.59,-1052.49 441.59,-1052.5"/>
<text xml:space="preserve" text-anchor="middle" x="401.97" y="-485.92" font-family="Helvetica,sans-Serif" font-size="9.00" fill="#0f766e">[RETURN] User Data</text>
</g>
<!-- Cfg_Users&#45;&gt;Cfg_Logic -->
<!-- Cfg_Logic&#45;&gt;API_Rekomendasi -->
<g id="edge26" class="edge">
<title>Cfg_Logic&#45;&gt;API_Rekomendasi</title>
<path fill="none" stroke="#0f766e" d="M868.82,-197C644.56,-197 111.75,-197 111.75,-197 111.75,-197 111.75,-1052.21 111.75,-1052.21"/>
<polygon fill="#0f766e" stroke="#0f766e" points="108.25,-1052.21 111.75,-1062.21 115.25,-1052.21 108.25,-1052.21"/>
<text xml:space="preserve" text-anchor="middle" x="55.88" y="-248.02" font-family="Helvetica,sans-Serif" font-size="9.00" fill="#0f766e">[RETURN] Logic Templates</text>
</g>
<!-- Cfg_Logic&#45;&gt;API_IKU -->
<g id="edge28" class="edge">
<title>Cfg_Logic&#45;&gt;API_IKU</title>
<path fill="none" stroke="#0f766e" d="M1064,-197C1243.68,-197 1608.73,-197 1608.73,-197 1608.73,-197 1608.73,-1052.21 1608.73,-1052.21"/>
<polygon fill="#0f766e" stroke="#0f766e" points="1605.24,-1052.21 1608.74,-1062.21 1612.24,-1052.21 1605.24,-1052.21"/>
<text xml:space="preserve" text-anchor="middle" x="1559.61" y="-354.19" font-family="Helvetica,sans-Serif" font-size="9.00" fill="#0f766e">[RETURN] IKU Mapping</text>
</g>
<!-- Cfg_Logic&#45;&gt;Export_Dir -->
<!-- Export_Dir&#45;&gt;API_Download -->
<g id="edge38" class="edge">
<title>Export_Dir&#45;&gt;API_Download</title>
<path fill="none" stroke="#0f766e" d="M880.63,-44C870.18,-44 863.1,-44 863.1,-44 863.1,-44 863.1,-1052.2 863.1,-1052.2"/>
<polygon fill="#0f766e" stroke="#0f766e" points="859.6,-1052.2 863.1,-1062.2 866.6,-1052.2 859.6,-1052.2"/>
<text xml:space="preserve" text-anchor="middle" x="788.1" y="-541.28" font-family="Helvetica,sans-Serif" font-size="9.00" fill="#0f766e">[RETURN] Static File (Pre&#45;Compiled)</text>
</g>
</g>
</svg>
